<svg xmlns="http://www.w3.org/2000/svg" xmlns:xlink="http://www.w3.org/1999/xlink" width="512" height="512" viewBox="0 0 512 512">
  <defs>
    <clipPath id="canvas-clip">
      <rect width="512" height="512" rx="256" ry="256"/>
    </clipPath>
  </defs>
  <rect width="512" height="512" rx="256" ry="256" fill="none"  clip-path="url(#canvas-clip)"/>
  <g clip-path="url(#canvas-clip)">
    <g transform="rotate(0, 256, 256)">
      
      <g transform="translate(103 103) scale(12.791666666666666 12.791666666666666) translate(0 0)"><g fill="none" stroke="#FFFFFF" stroke-linecap="round" stroke-linejoin="round" stroke-width="2"><path d="M11 21.73a2 2 0 0 0 2 0l7-4A2 2 0 0 0 21 16V8a2 2 0 0 0-1-1.73l-7-4a2 2 0 0 0-2 0l-7 4A2 2 0 0 0 3 8v8a2 2 0 0 0 1 1.73zm1 .27V12"/><path d="M3.29 7L12 12l8.71-5M7.5 4.27l9 5.15"/></g></g>
    </g>
  </g>
</svg>